<mxfile host="app.diagrams.net" agent="Mozilla/5.0 (Windows NT 10.0; Win64; x64) AppleWebKit/537.36 (KHTML, like Gecko) Chrome/137.0.0.0 Safari/537.36" version="27.2.0">
  <diagram name="Pagina-1" id="8vDKGt8DOvLZdlyYPaXr">
    <mxGraphModel dx="1281" dy="570" grid="1" gridSize="10" guides="1" tooltips="1" connect="1" arrows="1" fold="1" page="1" pageScale="1" pageWidth="1169" pageHeight="827" math="0" shadow="0">
      <root>
        <mxCell id="0" />
        <mxCell id="1" parent="0" />
        <mxCell id="Hn00ageJbvxvkV-j4Nx_-1" value="" style="shape=cylinder3;whiteSpace=wrap;html=1;boundedLbl=1;backgroundOutline=1;size=15;fillColor=#D4E1F5;" vertex="1" parent="1">
          <mxGeometry x="240" y="180" width="250" height="150" as="geometry" />
        </mxCell>
        <mxCell id="Hn00ageJbvxvkV-j4Nx_-2" value="" style="shape=cylinder3;whiteSpace=wrap;html=1;boundedLbl=1;backgroundOutline=1;size=15;fillColor=#FFB366;" vertex="1" parent="1">
          <mxGeometry x="290" y="220" width="150" height="90" as="geometry" />
        </mxCell>
        <mxCell id="Hn00ageJbvxvkV-j4Nx_-5" value="UAV" style="shape=cube;whiteSpace=wrap;html=1;boundedLbl=1;backgroundOutline=1;darkOpacity=0.05;darkOpacity2=0.1;size=10;" vertex="1" parent="1">
          <mxGeometry x="330" y="260" width="70" height="40" as="geometry" />
        </mxCell>
        <mxCell id="Hn00ageJbvxvkV-j4Nx_-6" value="Collision Volume" style="text;html=1;align=center;verticalAlign=middle;whiteSpace=wrap;rounded=0;" vertex="1" parent="1">
          <mxGeometry x="310" y="220" width="110" height="30" as="geometry" />
        </mxCell>
        <mxCell id="Hn00ageJbvxvkV-j4Nx_-7" value="Self-separation Volume" style="text;html=1;align=center;verticalAlign=middle;whiteSpace=wrap;rounded=0;" vertex="1" parent="1">
          <mxGeometry x="300" y="180" width="130" height="30" as="geometry" />
        </mxCell>
        <mxCell id="Hn00ageJbvxvkV-j4Nx_-8" value="" style="shape=waypoint;sketch=0;fillStyle=solid;size=6;pointerEvents=1;points=[];fillColor=none;resizable=0;rotatable=0;perimeter=centerPerimeter;snapToPoint=1;" vertex="1" parent="1">
          <mxGeometry x="460" y="220" width="20" height="20" as="geometry" />
        </mxCell>
        <mxCell id="Hn00ageJbvxvkV-j4Nx_-10" value="" style="line;strokeWidth=2;html=1;" vertex="1" parent="1">
          <mxGeometry x="470" y="225" width="50" height="10" as="geometry" />
        </mxCell>
        <mxCell id="Hn00ageJbvxvkV-j4Nx_-11" value="" style="shape=waypoint;sketch=0;fillStyle=solid;size=6;pointerEvents=1;points=[];fillColor=none;resizable=0;rotatable=0;perimeter=centerPerimeter;snapToPoint=1;" vertex="1" parent="1">
          <mxGeometry x="420" y="270" width="20" height="20" as="geometry" />
        </mxCell>
        <mxCell id="Hn00ageJbvxvkV-j4Nx_-12" value="" style="line;strokeWidth=2;html=1;" vertex="1" parent="1">
          <mxGeometry x="430" y="275" width="90" height="10" as="geometry" />
        </mxCell>
        <mxCell id="Hn00ageJbvxvkV-j4Nx_-13" value="Collision Avoidance" style="text;html=1;align=center;verticalAlign=middle;whiteSpace=wrap;rounded=0;" vertex="1" parent="1">
          <mxGeometry x="520" y="265" width="110" height="30" as="geometry" />
        </mxCell>
        <mxCell id="Hn00ageJbvxvkV-j4Nx_-14" value="Conflict Avoidance" style="text;html=1;align=center;verticalAlign=middle;whiteSpace=wrap;rounded=0;" vertex="1" parent="1">
          <mxGeometry x="520" y="215" width="110" height="30" as="geometry" />
        </mxCell>
      </root>
    </mxGraphModel>
  </diagram>
</mxfile>
